<?xml version="1.0" standalone="no"?>
<!DOCTYPE svg PUBLIC "-//W3C//DTD SVG 1.1//EN" "http://www.w3.org/Graphics/SVG/1.1/DTD/svg11.dtd" >
<svg xmlns="http://www.w3.org/2000/svg">
<metadata>
This is a custom SVG webfont generated by Font Squirrel.
Copyright   : Copyright c 1988 1990 1994 Adobe Systems Incorporated  All Rights ReservedFrutiger is a trademark of LinotypeHell AG andor its subsidiaries
</metadata>
<defs>
<font id="webfont71eaSmIF" horiz-adv-x="1138" >
<font-face units-per-em="2048" ascent="1638" descent="-410" />
<missing-glyph horiz-adv-x="569" />
<glyph unicode=" "  horiz-adv-x="569" />
<glyph unicode="&#x09;" horiz-adv-x="569" />
<glyph unicode="&#xa0;" horiz-adv-x="569" />
<glyph unicode="!" horiz-adv-x="796" d="M514 1430h-229l26 -1029h176zM285 0h229v229h-229v-229z" />
<glyph unicode="&#x22;" d="M633 928h180v502h-180v-502zM326 928h180v502h-180v-502z" />
<glyph unicode="#" d="M193 0h155l60 426h241l-59 -426h155l60 426h217v156h-195l37 266h217v156h-194l59 426h-155l-60 -426h-242l60 426h-156l-59 -426h-219v-156h196l-37 -266h-217v-156h195zM672 582h-242l37 266h242z" />
<glyph unicode="$" d="M506 891q-61 39 -98 81t-37 99q0 74 33.5 118t101.5 68v-366zM625 594q70 -37 106.5 -83t36.5 -124q0 -70 -40 -129t-103 -80v416zM506 -217h119v205q164 27 262 137.5t98 273.5q0 133 -59.5 215t-182.5 150l-118 65v445h20q143 0 244 -60l29 189q-137 49 -293 51v197 h-119v-205q-152 -25 -252 -127t-100 -254q0 -137 73.5 -223t208.5 -154l70 -35v-497h-29q-90 0 -158.5 18.5t-123.5 56.5l-25 -196q143 -59 311 -60h25v-192z" />
<glyph unicode="%" horiz-adv-x="2048" d="M532 635q86 0 145.5 32.5t95.5 91t51.5 131.5t15.5 154q0 88 -14.5 161t-48.5 129.5t-94 88t-151 31.5q-90 0 -150 -31.5t-95 -88t-48.5 -129t-13.5 -161.5q0 -82 15.5 -154.5t51.5 -130t96 -91t144 -33.5zM1516 119q-43 0 -70 27.5t-39 69.5t-15 83t-3 86q0 49 3 89 t14 81t37.5 68.5t72.5 27.5q43 0 69.5 -22.5t38.5 -60.5t15 -81t3 -102q0 -45 -3 -86t-15 -83t-38.5 -69.5t-69.5 -27.5zM506 -45h147l887 1520h-147zM1516 -25q86 0 145 33t95 91.5t51.5 131t15.5 154.5q0 88 -14.5 160.5t-48.5 129t-94 88.5t-150 32t-150.5 -32 t-95.5 -88.5t-48.5 -129t-13.5 -160.5q0 -82 15.5 -154.5t51.5 -130t96.5 -91.5t144.5 -34zM532 778q-43 0 -69.5 28t-38.5 70t-15 82.5t-3 85.5q0 49 3 89.5t14 81t37.5 68.5t71.5 28q43 0 70 -22.5t39 -60.5t15 -81t3 -103q0 -45 -3 -85.5t-15 -82.5t-39 -70t-70 -28z" />
<glyph unicode="&#x26;" horiz-adv-x="1478" d="M1135 772q-8 -125 -28 -202.5t-60 -143.5l-291 332q133 59 223 153.5t90 218.5q0 160 -101.5 242t-252.5 82q-164 0 -268.5 -86t-104.5 -250q0 -92 38 -164.5t109 -160.5q-154 -61 -236.5 -162t-82.5 -256q0 -180 125 -290t336 -110q139 0 236.5 39t172.5 125l117 -139 h256l-250 283q70 106 111 217.5t53 271.5h-192zM387 389q0 96 49 154.5t152 128.5l344 -404q-49 -55 -112.5 -96t-151.5 -41q-115 0 -198 71.5t-83 186.5zM535 1114q0 88 49 136t123 48q80 0 125 -42t45 -134q0 -80 -66 -145.5t-149 -104.5q-59 66 -93 122.5t-34 119.5z" />
<glyph unicode="'" horiz-adv-x="569" d="M195 928h180v502h-180v-502z" />
<glyph unicode="(" horiz-adv-x="681" d="M653 -287q-147 250 -231 471.5t-84 446.5q0 223 83 437t232 480h-184q-162 -252 -249 -464t-87 -453q0 -238 88 -459t248 -459h184z" />
<glyph unicode=")" horiz-adv-x="681" d="M29 1548q147 -250 231 -471t84 -446q0 -221 -83 -436t-232 -482h184q162 252 249 464t87 454q0 238 -88 459t-248 458h-184z" />
<glyph unicode="*" d="M735 635l154 102l-219 252l321 68l-55 174l-299 -127l31 326h-187l33 -326l-309 127l-58 -174l328 -68l-225 -252l151 -102l168 283z" />
<glyph unicode="+" horiz-adv-x="1228" d="M96 428h428v-428h181v428h428v180h-428v428h-181v-428h-428v-180z" />
<glyph unicode="," horiz-adv-x="569" d="M41 -272h184l174 501h-229z" />
<glyph unicode="-" horiz-adv-x="681" d="M78 473h526v156h-526v-156z" />
<glyph unicode="." horiz-adv-x="569" d="M170 0h229v229h-229v-229z" />
<glyph unicode="/" horiz-adv-x="569" d="M-51 -25h180l492 1479h-181z" />
<glyph unicode="0" d="M84 715q0 -131 22.5 -258t76 -236.5t149.5 -177.5t237 -68t237.5 68t151 177.5t76 236.5t21.5 258t-21.5 258t-76 236.5t-150.5 177t-238 67.5q-141 0 -236 -67.5t-149.5 -177t-77 -236.5t-22.5 -258zM301 715q0 84 10.5 178t39 184t82.5 149.5t136 59.5t136.5 -59.5 t83 -149.5t39 -184t10.5 -178q0 -88 -9.5 -180.5t-36 -182.5t-82 -149.5t-141.5 -59.5t-141 59.5t-82 150.5t-36 182.5t-9 179.5z" />
<glyph unicode="1" d="M551 0h205v1430h-183l-350 -287l109 -137l219 188v-1194z" />
<glyph unicode="2" d="M102 0h906v168h-686l73 65l101 91q41 37 77 73l5 4l146 152q65 70 125 151.5t99 171t39 171.5q0 195 -131 301t-334 106q-180 0 -375 -84l21 -176q70 39 156 65.5t172 26.5q117 0 195.5 -63.5t78.5 -163.5q0 -80 -37 -162t-96 -158.5t-121 -138.5l-145 -141l-13 -10 l-198 -179l-58 -51v-219z" />
<glyph unicode="3" d="M297 659h125q74 0 137.5 -13t112.5 -44t77.5 -84t28.5 -131q0 -66 -30.5 -113t-82 -75.5t-112.5 -42t-123 -13.5q-84 0 -166 22.5t-147 55.5l-13 -190q82 -25 166 -40.5t162 -15.5q117 0 215 18.5t177 63.5t125 126t46 198q0 147 -85 235.5t-234 118.5v4q131 25 219 111 t88 215q0 98 -37 173t-101.5 122t-149.5 70.5t-181 23.5q-88 0 -186.5 -18.5t-171.5 -44.5l12 -183q72 37 149.5 57.5t167.5 20.5q123 0 202 -55t79 -170q0 -66 -33 -111t-86 -72.5t-114.5 -39t-120.5 -11.5h-115v-168z" />
<glyph unicode="4" d="M705 494h-451l446 768h5v-768zM705 0h204v326h181v168h-181v936h-293l-577 -936v-168h666v-326z" />
<glyph unicode="5" d="M979 1430h-786l-13 -752q61 27 126 40t151 13q152 0 249 -79t97 -226q0 -131 -99.5 -207t-234.5 -76q-92 0 -160.5 17.5t-136.5 54.5l-6 -192q53 -18 129 -33t178 -15q113 0 212 32t175 93.5t118 151.5t42 205q0 94 -36 175t-100.5 141.5t-148.5 93t-178 32.5 q-106 0 -184 -20l12 383h594v168z" />
<glyph unicode="6" d="M981 1409q-39 16 -131 30.5t-164 14.5q-162 0 -275.5 -66.5t-180 -179t-95.5 -251t-29 -295.5q0 -135 20.5 -254t74 -217.5t148.5 -157t239 -58.5q201 0 330 128t129 346q0 199 -114 324.5t-317 125.5q-90 0 -165.5 -30.5t-147.5 -100.5l-4 -2q2 104 27.5 198.5t76 167 t125 113.5t170.5 41q141 0 254 -59zM829 444q0 -125 -65.5 -213t-188.5 -88q-117 0 -184 94.5t-67 206.5q0 125 71.5 206t194.5 81q113 0 176 -88t63 -199z" />
<glyph unicode="7" d="M1006 1430h-906v-168h697l-545 -1262h225l529 1262v168z" />
<glyph unicode="8" d="M565 -25q102 0 192.5 25t158 75t106.5 128t39 182q0 137 -82 234.5t-219 144.5q141 76 199.5 161t58.5 208q0 127 -115 219q-59 49 -142 75.5t-186 26.5q-211 0 -336.5 -99.5t-125.5 -242.5q0 -115 61.5 -210t206.5 -146v-4q-137 -47 -220 -143.5t-83 -233.5 q0 -96 41 -171t110.5 -126t156.5 -77t179 -26zM844 369q-2 -104 -77 -165t-183 -61q-115 0 -202 65.5t-87 178.5q0 92 42 141.5t132 106.5l63 41l70 -31q66 -29 102.5 -48t69.5 -49t51.5 -74t18.5 -105zM317 1083q0 92 80 147.5t162 55.5q43 0 84 -9t77 -30.5t58.5 -56.5 t22.5 -84q0 -41 -6.5 -70.5t-25.5 -60.5t-56 -67t-101 -85q-156 76 -225.5 133t-69.5 127z" />
<glyph unicode="9" d="M158 20q39 -16 131 -30.5t164 -14.5q162 0 275.5 67t180 179.5t95 251.5t28.5 295q0 135 -20.5 254t-73.5 217t-148.5 156.5t-238.5 58.5q-199 0 -329 -128t-130 -345q0 -199 113.5 -325t316.5 -126q90 0 166 31t148 101l4 2q-2 -104 -28 -198.5t-75 -166.5t-124.5 -114 t-172.5 -42q-141 0 -254 60zM309 985q0 125 66.5 213t187.5 88q117 0 184.5 -94t67.5 -207q0 -123 -71.5 -205t-194.5 -82q-113 0 -176.5 88t-63.5 199z" />
<glyph unicode=":" horiz-adv-x="569" d="M399 1044h-229v-229h229v229zM170 0h229v229h-229v-229z" />
<glyph unicode=";" horiz-adv-x="569" d="M41 -272h184l174 501h-229zM399 1044h-229v-229h229v229z" />
<glyph unicode="&#x3c;" horiz-adv-x="1228" d="M1135 1053l-1041 -457v-156l1041 -456v180l-807 354l807 354v181z" />
<glyph unicode="=" horiz-adv-x="1228" d="M96 643h1037v180h-1037v-180zM96 213h1037v180h-1037v-180z" />
<glyph unicode="&#x3e;" horiz-adv-x="1228" d="M94 -16l1041 456v156l-1041 457v-181l807 -354l-807 -354v-180z" />
<glyph unicode="?" horiz-adv-x="1024" d="M418 401h192v37q0 45 9.5 80t33.5 70q33 49 105 135q90 104 133 180t43 178q0 88 -36 159t-99.5 118t-142 71.5t-164.5 24.5q-184 0 -340 -68l14 -194q113 82 303 82q104 0 176 -52.5t72 -154.5q0 -80 -39 -144.5t-111 -148.5q-14 -14 -22 -24q-74 -88 -100.5 -148.5 t-26.5 -157.5v-43zM399 0h230v229h-230v-229z" />
<glyph unicode="@" horiz-adv-x="1638" d="M750 444q-78 0 -123 52.5t-45 134.5q0 53 20.5 109.5t57 104.5t87 76.5t107.5 28.5q66 0 112 -49t46 -123q0 -53 -19.5 -112.5t-55.5 -109.5t-84 -81t-103 -31zM1260 1090h-154l-31 -107q-84 135 -233 135q-96 0 -178 -43t-140.5 -116.5t-90.5 -166t-32 -188.5 q0 -66 24 -125t65.5 -105t97 -72t117.5 -26q59 0 117.5 33t105.5 82h4q2 -55 35.5 -85t83.5 -30q63 0 145 36t161 108t129 180.5t50 245.5q0 133 -54.5 245.5t-150.5 193.5t-220 125t-259 44q-152 0 -289 -52t-240.5 -150.5t-162 -235.5t-58.5 -301q0 -172 58.5 -310.5 t162 -233.5t241.5 -145.5t298 -50.5q186 0 347 86t261 240h-155q-80 -84 -198 -133t-247 -49q-268 0 -434 154.5t-166 437.5q0 125 41 234.5t119 191.5t185.5 128t234.5 46q113 0 211 -33t173 -96.5t117 -156.5t42 -210q0 -76 -21.5 -145.5t-58.5 -123.5t-81 -84t-89 -30 q-20 0 -27.5 12.5t-9.5 38.5q0 29 16 86z" />
<glyph unicode="A" horiz-adv-x="1478" d="M25 0h215l145 360h700l146 -360h223l-604 1430h-215zM1020 528h-569l284 709z" />
<glyph unicode="B" horiz-adv-x="1251" d="M170 0h381q117 0 214 17.5t172 60.5t117 117.5t42 185.5q0 147 -91.5 239.5t-240.5 104.5v4q143 35 219 117t76 223q0 188 -132 274.5t-370 86.5h-387v-1430zM375 651h133q78 0 140.5 -9t114.5 -35.5t84 -78t32 -129.5q0 -70 -28 -115.5t-76 -70.5t-109.5 -35t-137.5 -10 h-153v483zM375 1262h215q49 0 95 -10.5t84 -34t61.5 -65.5t23.5 -103q0 -76 -27.5 -123t-78 -69.5t-112 -30t-149.5 -7.5h-112v443z" />
<glyph unicode="C" horiz-adv-x="1251" d="M1186 1393q-139 61 -322 61q-162 0 -301 -52t-241.5 -149.5t-157.5 -233.5t-55 -298q0 -168 53 -306.5t153.5 -236.5t239.5 -150.5t307 -52.5q84 0 169 10.5t157 41.5l-12 198q-51 -31 -141.5 -50t-170.5 -19q-111 0 -209 40t-172.5 114.5t-115.5 178t-41 226.5 q0 119 38.5 222t111.5 179t175.5 117t222.5 41q160 0 295 -80z" />
<glyph unicode="D" horiz-adv-x="1478" d="M170 0h422q358 0 560 186.5t202 540.5q0 162 -58.5 293t-162 222t-242.5 139.5t-299 48.5h-422v-1430zM375 1249h239q111 0 206 -35.5t167 -105.5t111 -168t39 -221q0 -272 -139.5 -405.5t-407.5 -133.5h-215v1069z" />
<glyph unicode="E" d="M193 0h800v180h-596v471h543v180h-543v418h596v181h-800v-1430z" />
<glyph unicode="F" horiz-adv-x="1024" d="M170 0h205v651h530v180h-530v418h555v181h-760v-1430z" />
<glyph unicode="G" horiz-adv-x="1478" d="M1284 1382q-111 39 -194.5 55.5t-225.5 16.5q-162 0 -301 -52t-241.5 -149.5t-157.5 -233.5t-55 -298q0 -168 53 -306.5t153.5 -236.5t239.5 -150.5t307 -52.5q150 0 254.5 18.5t181.5 45.5v743h-505v-168h301v-434l-25 -6q-43 -8 -84 -13t-121 -5q-111 0 -209 40 t-172.5 114.5t-115.5 178t-41 226.5q0 119 38.5 221t111.5 178t175.5 118t222.5 42q135 0 225.5 -23.5t168.5 -74.5z" />
<glyph unicode="H" horiz-adv-x="1478" d="M193 0h204v651h684v-651h205v1430h-205v-599h-684v599h-204v-1430z" />
<glyph unicode="I" horiz-adv-x="569" d="M182 0h205v1430h-205v-1430z" />
<glyph unicode="J" horiz-adv-x="796" d="M43 0q66 -25 166 -25q111 0 189.5 32t124.5 87.5t66.5 125t20.5 149.5v1061h-204v-996q0 -139 -51.5 -208.5t-182.5 -69.5q-72 0 -129 20v-176z" />
<glyph unicode="K" horiz-adv-x="1366" d="M193 0h204v700l637 -700h299l-725 754l672 676h-272l-611 -629v629h-204v-1430z" />
<glyph unicode="L" horiz-adv-x="1024" d="M180 0h803v180h-598v1250h-205v-1430z" />
<glyph unicode="M" horiz-adv-x="1933" d="M184 0h205v1237h4l473 -1237h201l473 1237h4v-1237h205v1430h-338l-440 -1188l-449 1188h-338v-1430z" />
<glyph unicode="N" horiz-adv-x="1478" d="M180 0h205v1176h4l647 -1176h262v1430h-204v-1151h-4l-631 1151h-279v-1430z" />
<glyph unicode="O" horiz-adv-x="1593" d="M326 715q0 111 29.5 211t89 179t148.5 124t204 45t204 -45t148 -124t89 -179.5t30 -210.5q0 -111 -28 -210t-86 -179t-148.5 -125t-208.5 -45q-119 0 -209 45t-148.5 123.5t-86 179t-27.5 211.5zM109 715q0 -164 46 -299t135 -234.5t217 -153t290 -53.5t289.5 53.5 t217 153t135.5 234.5t46 299q0 158 -46 294t-135.5 235t-218.5 154.5t-288 55.5q-160 0 -288 -55.5t-218 -154.5t-136 -235t-46 -294z" />
<glyph unicode="P" d="M375 1249h174q51 0 106.5 -14t102.5 -43t76.5 -77t29.5 -111q0 -68 -25.5 -117t-67.5 -79t-92 -43t-101 -13h-203v497zM170 0h205v571h200q102 0 192.5 23.5t161 75t111.5 134.5t41 197q0 119 -41 202t-114.5 132t-168.5 72t-212 23h-375v-1430z" />
<glyph unicode="Q" horiz-adv-x="1593" d="M326 715q0 111 29.5 211t89 179t148.5 124t204 45t204 -45t148 -124t89 -179.5t30 -210.5q0 -111 -28 -210t-86 -179t-148.5 -125t-208.5 -45q-119 0 -209 45t-148.5 123.5t-86 179t-27.5 211.5zM1178 -264h254l-332 301q184 82 284.5 259t100.5 419q0 158 -46 294 t-135.5 235t-218.5 154.5t-288 55.5q-160 0 -288 -55.5t-218 -154.5t-136 -235.5t-46 -293.5q0 -164 46 -299t135 -234.5t217 -153t290 -53.5q66 0 114 9z" />
<glyph unicode="R" horiz-adv-x="1251" d="M170 0h205v635h123q98 0 147 -22.5t92 -116.5l219 -496h234l-270 569q-33 66 -63 95.5t-77 48.5v4q129 23 212 110.5t83 214.5q0 123 -45 201t-122 118t-171 54.5t-217 14.5h-350v-1430zM375 1249h196q139 0 213 -56t74 -155q0 -102 -82 -162.5t-227 -60.5h-174v434z" />
<glyph unicode="S" horiz-adv-x="1024" d="M860 1403q-72 27 -151.5 39t-153.5 12q-201 0 -330 -102.5t-129 -286.5q0 -86 29 -149.5t78 -108.5t102 -75t137 -70q135 -63 187 -105q39 -35 60.5 -75t21.5 -93q0 -59 -26 -104t-68 -74t-91 -42t-96 -13q-70 0 -150.5 21.5t-146.5 47.5l-20 -190q86 -29 155.5 -44.5 t137.5 -15.5q113 0 206 25t164.5 76t111.5 133t40 192q0 96 -32 167t-84 121t-108.5 83t-144.5 74q-127 61 -186.5 109.5t-59.5 127.5q0 53 21.5 91t58.5 59.5t81 31t89 9.5q76 0 129 -13.5t139 -46.5z" />
<glyph unicode="T" d="M467 0h205v1249h444v181h-1093v-181h444v-1249z" />
<glyph unicode="U" horiz-adv-x="1478" d="M1294 1430h-204v-812q0 -221 -81 -341.5t-270 -120.5q-188 0 -269 120.5t-81 341.5v812h-205v-838q0 -299 144.5 -458t410.5 -159t410.5 159t144.5 458v838z" />
<glyph unicode="V" horiz-adv-x="1366" d="M1354 1430h-215l-453 -1250h-4l-440 1250h-230l539 -1430h256z" />
<glyph unicode="W" horiz-adv-x="2048" d="M436 0h275l313 1249h4l311 -1249h265l440 1430h-217l-342 -1225h-4l-310 1225h-290l-306 -1225h-4l-342 1225h-225z" />
<glyph unicode="X" horiz-adv-x="1366" d="M16 0h246l408 606l422 -606h258l-529 748l482 682h-234l-379 -549l-381 549h-246l480 -687z" />
<glyph unicode="Y" horiz-adv-x="1366" d="M582 0h204v598l557 832h-239l-416 -642l-426 642h-239l559 -832v-598z" />
<glyph unicode="Z" d="M66 0h989v180h-752l739 1065v185h-952v-181h717l-741 -1065v-184z" />
<glyph unicode="[" horiz-adv-x="681" d="M195 -287h387v144h-207v1548h207v143h-387v-1835z" />
<glyph unicode="\" horiz-adv-x="569" d="M440 -25h181l-492 1479h-180z" />
<glyph unicode="]" horiz-adv-x="681" d="M487 1548h-387v-143h207v-1548h-207v-144h387v1835z" />
<glyph unicode="^" horiz-adv-x="1228" d="M123 602h184l307 639l308 -639h184l-408 828h-168z" />
<glyph unicode="_" horiz-adv-x="1024" d="M0 -154v-102h1024v102h-1024z" />
<glyph unicode="`" horiz-adv-x="569" d="M238 1485h-224l269 -295h137z" />
<glyph unicode="a" d="M223 807q57 49 139 77.5t164 28.5q141 0 199.5 -66.5t58.5 -205.5q-57 4 -96 4h-108q-82 0 -165 -18.5t-157 -58.5t-119 -107.5t-45 -159.5q0 -164 103.5 -245t279.5 -81q117 0 198 48.5t126 111.5h4v-135h180q-4 27 -6 73t-2 132v432q0 217 -100.5 324.5t-319.5 107.5 q-178 0 -344 -98zM784 406q0 -121 -75.5 -198t-214.5 -77q-74 0 -134.5 46t-60.5 124q0 66 39 107t96.5 61t114.5 26.5t113 6.5q20 0 61 -2t61 -2v-92z" />
<glyph unicode="b" horiz-adv-x="1251" d="M164 0h184v147h4q45 -70 137.5 -121t219.5 -51q115 0 199.5 46.5t140 126t82 181t26.5 212.5q0 106 -28.5 202.5t-85 169t-141.5 114.5t-195 42q-129 0 -213 -45t-134 -123h-4v635h-192v-1536zM952 526q0 -68 -17 -137.5t-53 -127.5t-91.5 -94t-126.5 -36 q-78 0 -137.5 35t-96.5 92t-55.5 125t-18.5 137q0 76 19.5 145.5t58.5 126t97.5 89t134.5 32.5q74 0 129 -31.5t90 -86t51 -123t16 -146.5z" />
<glyph unicode="c" horiz-adv-x="909" d="M844 1028q-43 16 -109.5 28.5t-124.5 12.5q-117 0 -216 -40t-169.5 -113.5t-108.5 -174t-38 -219.5q0 -111 38 -210t110.5 -176t171 -119t212.5 -42q63 0 126 9.5t116 33.5l-14 172q-43 -29 -99.5 -44t-107.5 -15q-90 0 -156.5 34t-108.5 90t-62.5 125t-20.5 142 q0 76 22.5 146.5t65.5 126t106.5 87t140.5 31.5q100 0 209 -45z" />
<glyph unicode="d" horiz-adv-x="1251" d="M903 0h184v1536h-192v-635h-4q-49 78 -133 123t-213 45q-111 0 -196 -42t-141 -114.5t-85 -169t-29 -202.5q0 -111 26.5 -212.5t82 -181t140.5 -126t200 -46.5q127 0 219 51.5t137 120.5h4v-147zM299 526q0 78 16.5 146.5t51 124t90 86t129.5 30.5q76 0 134 -32.5t97 -89 t58.5 -126t19.5 -145.5q0 -70 -18.5 -137.5t-55.5 -124.5t-96 -92t-137 -35q-72 0 -127 36t-91 94t-53.5 127.5t-17.5 137.5z" />
<glyph unicode="e" d="M965 236q-18 -14 -53 -33t-80.5 -35t-94.5 -26.5t-94 -10.5q-68 0 -130 24.5t-110.5 71.5t-76 111.5t-27.5 140.5h745q0 131 -23.5 237.5t-77.5 185.5t-143 123t-216 44q-109 0 -200 -39t-155.5 -109.5t-99.5 -168t-35 -211.5q0 -264 135.5 -415t405.5 -151 q98 0 164.5 15.5t136.5 42.5q16 6 29 10v193zM299 623q6 53 24.5 105t52.5 94t85 66.5t119 24.5q121 0 190.5 -82.5t69.5 -207.5h-541z" />
<glyph unicode="f" horiz-adv-x="796" d="M289 0h192v889h277v155h-277v113q0 125 36 186.5t151 61.5q59 0 92 -12l8 155q-78 12 -129 13q-104 0 -173 -29t-108 -83t-54 -130t-15 -178v-97h-246v-155h246v-889z" />
<glyph unicode="g" horiz-adv-x="1251" d="M1087 1044h-178v-155h-4q-45 88 -128 134t-216 46q-115 0 -203 -47t-147 -127t-88 -178.5t-29 -202.5q0 -102 28 -195.5t84 -165t141 -112.5t194 -41q104 0 197 41t153 121h4v-103q0 -166 -86 -262t-238 -96q-102 0 -182 20.5t-194 73.5l-21 -178q123 -41 206 -56.5 t169 -15.5q274 0 406 128t132 372v999zM590 156q-131 0 -211 107.5t-80 260.5q0 70 18.5 138.5t55.5 126t92 91t125 33.5q147 0 226 -114.5t79 -288.5q0 -150 -86 -252t-219 -102z" />
<glyph unicode="h" horiz-adv-x="1251" d="M164 0h192v483q0 199 80 314.5t238 115.5q123 -8 172 -96t49 -276v-541h192v621q0 217 -96 332.5t-295 115.5q-109 0 -195.5 -45t-140.5 -129h-4v641h-192v-1536z" />
<glyph unicode="i" horiz-adv-x="569" d="M188 0h193v1044h-193v-1044zM393 1495h-217v-217h217v217z" />
<glyph unicode="j" horiz-adv-x="569" d="M-33 -446q18 -4 52 -6.5t67 -2.5q102 0 163.5 41t89.5 104.5t35 127t7 145.5v1081h-193v-1110q0 -102 -34.5 -161.5t-102.5 -59.5q-25 0 -42 1t-36 5zM393 1495h-217v-217h217v217z" />
<glyph unicode="k" d="M164 0h192v537l467 -537h277l-547 582l485 462h-262l-420 -423v915h-192v-1536z" />
<glyph unicode="l" horiz-adv-x="569" d="M188 0h193v1536h-193v-1536z" />
<glyph unicode="m" horiz-adv-x="1820" d="M162 0h192v526q0 76 15.5 145.5t49.5 124t87 86t123 31.5q55 0 92 -25.5t57.5 -67.5t28.5 -93t8 -104v-623h193v526q0 76 15 145.5t49 124t87 86t123 31.5q55 0 92 -25.5t57.5 -67.5t28.5 -93t8 -104v-623h193v670q0 184 -87 291.5t-276 107.5q-84 0 -179 -50t-144 -153 q-39 100 -120 151.5t-177 51.5q-115 0 -196 -43t-136 -133h-4v151h-180v-1044z" />
<glyph unicode="n" horiz-adv-x="1251" d="M164 0h192v483q0 199 80 314.5t238 115.5q123 -8 172 -96t49 -276v-541h192v621q0 217 -96 332.5t-295 115.5q-111 0 -205 -51t-137 -139h-4v165h-186v-1044z" />
<glyph unicode="o" horiz-adv-x="1251" d="M94 522q0 -111 38 -210t110.5 -176t171 -119t213.5 -42t213 42t168.5 118t109.5 176.5t39 210.5q0 119 -38 219.5t-108.5 174t-169 113.5t-214.5 40q-117 0 -216.5 -40t-170 -113.5t-108.5 -174t-38 -219.5zM299 522q0 76 22.5 145.5t65.5 126t103.5 88t136.5 31.5 q74 0 135 -31.5t103 -88t64.5 -126t22.5 -145.5q0 -72 -19.5 -141.5t-60.5 -125.5t-102 -90t-143 -34t-144.5 34t-103.5 90t-60.5 125.5t-19.5 141.5z" />
<glyph unicode="p" horiz-adv-x="1251" d="M164 -430h192v573h4q49 -78 133.5 -123t215.5 -45q115 0 199.5 46.5t140 126t82 181t26.5 212.5q0 106 -28.5 202.5t-85 169t-141.5 114.5t-195 42q-125 0 -217.5 -51t-137.5 -121h-4v147h-184v-1474zM952 526q0 -68 -17 -137.5t-53 -127.5t-91.5 -94t-126.5 -36 q-78 0 -137.5 35t-96.5 92t-55.5 125t-18.5 137q0 76 19.5 145.5t58.5 126t97.5 89t134.5 32.5q74 0 129 -31.5t90 -86t51 -123t16 -146.5z" />
<glyph unicode="q" horiz-adv-x="1251" d="M1087 1044h-184v-149h-4q-45 70 -136 122t-218 52q-111 0 -196 -42t-141 -114.5t-85 -169t-29 -202.5q0 -111 26.5 -212.5t82 -181t140.5 -126t200 -46.5t209 44t139 118h4v-567h192v1474zM299 526q0 78 16.5 146.5t51 124t90 86t129.5 30.5q76 0 134 -32.5t97 -89 t58.5 -126t19.5 -145.5q0 -70 -18.5 -137.5t-55.5 -124.5t-96 -92t-137 -35q-72 0 -127 36t-91 94t-53.5 127.5t-17.5 137.5z" />
<glyph unicode="r" horiz-adv-x="796" d="M164 0h192v475q0 197 78 311.5t207 114.5q61 0 107 -18v172h-5q-35 8 -60.5 11t-61.5 3q-82 0 -158 -52t-115 -134h-4v161h-180v-1044z" />
<glyph unicode="s" horiz-adv-x="796" d="M76 33q61 -33 132 -45.5t154 -12.5q152 0 258.5 84t106.5 242q0 66 -22.5 115t-59.5 82.5t-78 56.5t-104 51q-96 45 -142.5 81t-46.5 99q0 61 53.5 94t131.5 33q37 0 104.5 -17t98.5 -36l16 168q-68 20 -123 30.5t-117 10.5q-162 0 -265 -83t-103 -238q0 -57 22.5 -102.5 t59 -78t75.5 -55.5t105 -53q98 -47 144 -84t46 -94q0 -76 -59.5 -113t-136.5 -37q-47 0 -117 19.5t-123 54.5z" />
<glyph unicode="t" horiz-adv-x="796" d="M719 1044h-277v304l-192 -62v-242h-236v-155h236v-610q0 -154 84 -229t237 -75q41 0 81 8.5t83 20.5v164q-57 -37 -131 -37q-70 0 -116 49t-46 137v572h277v155z" />
<glyph unicode="u" horiz-adv-x="1251" d="M1087 1044h-192v-483q0 -199 -80 -314.5t-237 -115.5q-123 8 -172.5 96t-49.5 277v540h-192v-620q0 -215 96 -332t295 -117q111 0 205 51.5t137 139.5h4v-166h186v1044z" />
<glyph unicode="v" horiz-adv-x="1024" d="M1001 1044h-192l-289 -851h-4l-283 851h-210l374 -1044h230z" />
<glyph unicode="w" horiz-adv-x="1705" d="M1681 1044h-188l-254 -864h-4l-262 864h-228l-266 -864h-4l-239 864h-211l335 -1044h224l264 877h4l270 -877h224z" />
<glyph unicode="x" horiz-adv-x="1024" d="M20 0h230l258 410l258 -410h238l-369 547l336 497h-215l-232 -372l-227 372h-240l340 -497z" />
<glyph unicode="y" horiz-adv-x="1024" d="M74 -440l14 -2q63 -12 117 -13q88 0 152.5 35t107.5 94.5t71.5 123t63.5 163.5l6 16l385 1067h-194l-287 -864h-4l-281 864h-211l355 -974q4 -10 12 -33q14 -33 19.5 -50.5t5.5 -27.5q0 -12 -13.5 -54t-40 -89t-71.5 -81t-105 -34q-41 0 -90 16z" />
<glyph unicode="z" horiz-adv-x="1024" d="M88 0h848v156h-625l602 721v167h-796v-155h573l-602 -721v-168z" />
<glyph unicode="{" horiz-adv-x="681" d="M643 1548h-160q-84 0 -157.5 -69.5t-73.5 -188.5v-383q0 -92 -54.5 -148.5t-121.5 -56.5v-143q68 0 122 -58.5t54 -156.5v-373q0 -119 73.5 -188.5t157.5 -69.5h160v144h-108q-57 0 -80 44t-23 111v365q0 70 -20.5 119t-50 76.5t-60.5 40t-57 16.5v4q25 4 56.5 19.5 t61 43t50 73.5t20.5 110v370q0 68 22.5 112t80.5 44h108v143z" />
<glyph unicode="|" horiz-adv-x="454" d="M137 1536v-2048h180v2048h-180z" />
<glyph unicode="}" horiz-adv-x="681" d="M39 -287h160q84 0 157.5 70t73.5 188v383q0 92 55.5 148.5t120.5 56.5v143q-68 0 -122 58.5t-54 157.5v372q0 119 -73.5 188.5t-157.5 69.5h-160v-143h108q57 0 80 -44t23 -112v-364q0 -70 20.5 -119t51 -76.5t60.5 -40t56 -16.5v-4q-25 -4 -55.5 -18.5t-61 -43t-51 -75 t-20.5 -109.5v-371q0 -68 -22.5 -111.5t-80.5 -43.5h-108v-144z" />
<glyph unicode="~" horiz-adv-x="1228" d="M1014 682q-47 -74 -86 -112t-94 -38q-29 0 -64 13.5t-94 40.5q-35 16 -51 22q-68 31 -124.5 47.5t-103.5 16.5q-94 0 -154.5 -48.5t-101.5 -125.5l74 -144q47 74 86 112t94 38q29 0 65 -13.5t93 -39.5q35 -14 51 -23q68 -31 124 -47t103 -16q94 0 155 48t101 126z" />
<glyph unicode="&#xa1;" horiz-adv-x="796" d="M487 643h-176l-26 -1028h229zM285 815h229v229h-229v-229z" />
<glyph unicode="&#xa2;" d="M500 223q-57 55 -85 134t-28 165q0 152 84 265.5t227 123.5zM356 -272h117l80 272q74 -25 162 -25q63 0 125.5 9.5t115.5 33.5l-14 172q-43 -29 -99.5 -44t-107.5 -15q-70 0 -137 25l215 747q57 -8 119 -35l16 160q-27 12 -92 27l72 243h-117l-68 -231q-10 2 -28 2 q-117 0 -216.5 -40t-170 -113.5t-108.5 -174t-38 -219.5q0 -152 71 -277.5t196 -197.5z" />
<glyph unicode="&#xa3;" d="M121 0h897v180h-506v533h330v118h-330v101q0 162 78 252t233 90q57 0 105.5 -13.5t99.5 -35.5l16 190q-117 39 -241 39q-236 0 -366 -140t-130 -368v-115h-162v-118h162v-533h-186v-180z" />
<glyph unicode="&#xa4;" d="M49 299l105 -104l112 116q57 -51 136 -77.5t167 -26.5t169 26.5t139 77.5l110 -116l103 104l-111 117q49 57 73.5 136t24.5 163q0 88 -25.5 169t-72.5 134l111 110l-103 107l-110 -113q-61 47 -141.5 74t-166.5 27q-82 0 -163.5 -27t-139.5 -74l-112 113l-105 -107 l115 -110q-51 -55 -77 -135t-26 -168q0 -178 103 -299zM242 715q0 68 25.5 130t70.5 109t104.5 74t126.5 27q68 0 128.5 -28t105.5 -75t69.5 -108.5t24.5 -128.5q0 -66 -24.5 -128.5t-68.5 -109.5t-104.5 -74.5t-130.5 -27.5q-66 0 -126 26.5t-105 73.5t-70.5 108.5 t-25.5 131.5z" />
<glyph unicode="&#xa5;" d="M469 0h205v332h289v119h-289v147l16 33h273v119h-207l370 680h-227l-324 -642l-335 642h-228l375 -680h-207v-119h273l16 -33v-147h-289v-119h289v-332z" />
<glyph unicode="&#xa6;" horiz-adv-x="454" d="M137 1382v-716h180v716h-180zM137 358v-716h180v716h-180z" />
<glyph unicode="&#xa7;" d="M182 -203q143 -51 330 -51q80 0 161 20.5t149.5 63.5t110.5 112.5t42 163.5q0 72 -35 133.5t-96 100.5q76 63 110.5 117.5t34.5 140.5q0 74 -29.5 129t-81 91t-103.5 58.5t-144 55.5q-131 45 -194.5 85t-63.5 113q0 47 25.5 78t66.5 48.5t85 23.5t87 6q57 0 124.5 -16.5 t125.5 -40.5l18 186q-156 39 -295 39q-78 0 -153.5 -20.5t-138 -61.5t-100.5 -104.5t-38 -145.5q0 -166 142 -243q-150 -90 -150 -254q0 -78 32 -135.5t84 -95.5t108.5 -62.5t146.5 -55.5q123 -43 181 -77.5t58 -98.5q0 -90 -72.5 -138t-170.5 -48q-94 0 -180.5 17.5 t-157.5 54.5zM352 664q0 102 76 159q31 -16 115 -45l102 -39t80 -41.5t61.5 -59.5t22.5 -79q0 -43 -18.5 -76.5t-55.5 -76.5q-25 10 -90 32q-66 23 -111 40.5t-86.5 43t-68.5 61.5t-27 81z" />
<glyph unicode="&#xa8;" horiz-adv-x="569" d="M20 1204h193v205h-193v-205zM356 1204h193v205h-193v-205z" />
<glyph unicode="&#xa9;" horiz-adv-x="1638" d="M1042 584q-10 -82 -65 -129t-139 -47q-121 0 -193 87t-72 224q0 133 68 216t193 83q80 0 137 -44t71 -120h150q-18 145 -119.5 226t-241.5 81q-190 0 -301.5 -125t-111.5 -321q0 -195 115.5 -323t304.5 -128q133 0 231 85t123 235h-150zM80 715q0 -150 57.5 -285 t159.5 -237.5t237.5 -160t284.5 -57.5q150 0 285 57.5t237.5 160t160 237.5t57.5 285t-57.5 285t-160 237t-237.5 159.5t-285 57.5t-285 -57.5t-237 -159.5t-159.5 -237t-57.5 -285zM260 715q0 127 43 236.5t120 190.5t179.5 125t216.5 44q115 0 217.5 -44t179 -125 t119.5 -190.5t43 -236.5t-43 -236.5t-119.5 -190.5t-179 -125t-217.5 -44t-217 44t-179 125t-120 190.5t-43 236.5z" />
<glyph unicode="&#xaa;" horiz-adv-x="739" d="M135 1268q92 68 221 67q76 0 118 -29.5t42 -107.5q-41 4 -125 4q-53 0 -110.5 -9t-110.5 -32.5t-88 -65.5t-35 -104q0 -55 25.5 -94t66.5 -61.5t86 -31.5t88 -9q66 0 117 21.5t84 72.5h4v-78h172q0 6 -2 33q-4 47 -4 88v262q0 150 -79 205t-236 55q-127 0 -240 -57z M434 1096q23 0 55 -2q18 -2 27 -2v-56q0 -63 -46 -93t-134 -30q-47 0 -84 18.5t-37 53.5t21.5 57.5t55.5 33.5t69.5 15.5t72.5 4.5z" />
<glyph unicode="&#xab;" d="M397 137h181l-267 414l267 414h-181l-293 -414zM811 137h180l-266 414l266 414h-180l-293 -414z" />
<glyph unicode="&#xac;" horiz-adv-x="1228" d="M96 643h856v-430h181v610h-1037v-180z" />
<glyph unicode="&#xad;" horiz-adv-x="1228" d="M96 428h1037v180h-1037v-180z" />
<glyph unicode="&#x2212;" horiz-adv-x="1228" d="M96 428h1037v180h-1037v-180z" />
<glyph unicode="&#xae;" horiz-adv-x="1638" d="M819 -25q150 0 285 57.5t237.5 160t160 237.5t57.5 285t-57.5 285t-160 237t-237.5 159.5t-285 57.5t-285 -57.5t-237 -159.5t-159.5 -237.5t-57.5 -284.5q0 -150 57.5 -285t159.5 -237.5t237 -160t285 -57.5zM819 119q-115 0 -217 44t-179 125t-120 190.5t-43 236.5 t43 236.5t120 190.5t179.5 125t216.5 44q115 0 217.5 -44t179 -125t119.5 -190.5t43 -236.5t-43 -236.5t-119.5 -190.5t-179 -125t-217.5 -44zM535 299h155v360h94l217 -360h160l-225 367q106 10 162.5 65t56.5 160q0 129 -78 187.5t-231 58.5h-311v-838zM690 1018h139 q74 0 122 -23.5t48 -91.5q0 -76 -44 -100.5t-128 -24.5h-137v240z" />
<glyph unicode="&#xaf;" horiz-adv-x="569" d="M-18 1260h606v118h-606v-118z" />
<glyph unicode="&#xb0;" horiz-adv-x="819" d="M117 1161q0 -121 86 -207t207 -86t206.5 86t85.5 207t-86 207t-206 86q-121 0 -207 -86t-86 -207zM248 1161q0 68 47 115t115 47t114.5 -47t46.5 -115t-47 -115t-114 -47q-68 0 -115 47t-47 115z" />
<glyph unicode="&#xb1;" horiz-adv-x="1228" d="M96 555h428v-301h181v301h428v180h-428v301h-181v-301h-428v-180zM96 0h1037v180h-1037v-180z" />
<glyph unicode="&#xb2;" horiz-adv-x="739" d="M63 578h613v143h-408v4q39 20 105.5 75.5t133 127t111 145.5t44.5 133q0 125 -90.5 186.5t-223.5 61.5q-135 0 -256 -51l12 -152q47 29 103.5 44.5t109.5 15.5q61 0 112.5 -29t51.5 -84q0 -47 -39 -105.5t-97 -116.5t-118 -109l-123 -101l-41 -33v-155z" />
<glyph unicode="&#xb3;" horiz-adv-x="739" d="M190 954h101q76 0 140.5 -35.5t64.5 -101.5q0 -31 -21.5 -52.5t-56.5 -33.5t-71 -17t-68 -5q-57 0 -116 14t-77 31l-20 -156q119 -33 231 -33q76 0 141.5 10.5t118.5 36t86 74.5t33 123q0 92 -58.5 147.5t-154.5 67.5v4q84 16 144.5 65.5t60.5 129.5q0 115 -92.5 173 t-225.5 58q-68 0 -135.5 -11t-116.5 -30l8 -147q104 45 199 45q68 0 125 -22.5t57 -74.5q0 -55 -66.5 -85.5t-135.5 -30.5h-95v-144z" />
<glyph unicode="&#xb4;" horiz-adv-x="569" d="M150 1190h137l268 295h-223z" />
<glyph unicode="&#xb5;" horiz-adv-x="1251" d="M1087 1044h-192v-483q0 -199 -80 -314.5t-237 -115.5q-123 8 -172.5 96t-49.5 277v540h-192v-1474h192v446q74 -41 199 -41q111 0 205 51.5t137 139.5h4v-166h186v1044z" />
<glyph unicode="&#xb6;" horiz-adv-x="1228" d="M483 -229h181v1515h235v-1515h180v1659h-555q-227 0 -355 -91.5t-128 -289.5q0 -164 120 -265.5t322 -101.5v-911z" />
<glyph unicode="&#xb7;" horiz-adv-x="569" d="M164 623q2 -49 38 -86t85 -37t84 35.5t35 87.5q0 49 -35 83.5t-84 34.5t-85 -34.5t-38 -83.5z" />
<glyph unicode="&#x2219;" horiz-adv-x="569" d="M164 623q2 -49 38 -86t85 -37t84 35.5t35 87.5q0 49 -35 83.5t-84 34.5t-85 -34.5t-38 -83.5z" />
<glyph unicode="&#xb8;" horiz-adv-x="569" d="M410 0l-131 -176l34 -39q45 16 84 16t67 -21.5t28 -58.5q0 -51 -34 -72.5t-81 -21.5q-37 0 -65.5 7.5t-67.5 23.5l-37 -70q78 -43 172 -43q104 0 186 47.5t82 141.5q0 68 -49 108.5t-121 40.5q-35 0 -61 -10l-4 4l94 123h-96z" />
<glyph unicode="&#xb9;" horiz-adv-x="739" d="M315 578h181v864h-166l-228 -174l70 -94l143 112v-708z" />
<glyph unicode="&#xba;" horiz-adv-x="813" d="M406 795q156 0 254 95t98 234q0 145 -96.5 237.5t-255.5 92.5q-158 0 -255.5 -92t-97.5 -238q0 -137 98.5 -233t254.5 -96zM221 1124q0 92 47 151.5t138 59.5q92 0 138 -59t46 -152q0 -92 -43 -151.5t-141 -59.5t-141.5 59.5t-43.5 151.5z" />
<glyph unicode="&#xbb;" d="M741 965h-180l266 -414l-266 -414h180l293 414zM328 965h-181l267 -414l-267 -414h181l293 414z" />
<glyph unicode="&#xbc;" horiz-adv-x="1708" d="M293 -45h147l887 1520h-147zM281 578h180v864h-166l-227 -174l69 -94l144 112v-708zM1354 313h-267l263 408h4v-408zM1354 0h180v170h106v143h-106v551h-238l-376 -569v-125h434v-170z" />
<glyph unicode="&#xbd;" horiz-adv-x="1708" d="M229 -45h148l887 1520h-148zM281 578h180v864h-166l-227 -174l69 -94l144 112v-708zM1028 0h612v143h-407v4q39 20 105.5 76t133 127.5t110.5 145t44 133.5q0 125 -90 186.5t-223 61.5q-135 0 -256 -52l12 -151q47 29 103.5 44t109.5 15q61 0 112.5 -28.5t51.5 -83.5 q0 -47 -39 -105.5t-97.5 -117t-117.5 -108.5l-123 -102l-41 -32v-156z" />
<glyph unicode="&#xbe;" horiz-adv-x="1708" d="M381 -45h147l887 1520h-147zM190 954h101q76 0 140.5 -35.5t64.5 -101.5q0 -31 -21.5 -52.5t-56.5 -33.5t-71 -17t-68 -5q-57 0 -116 14t-77 31l-20 -156q119 -33 231 -33q76 0 141.5 10.5t118.5 36t86 74.5t33 123q0 92 -58.5 147.5t-154.5 67.5v4q84 16 144.5 65.5 t60.5 129.5q0 115 -92.5 173t-225.5 58q-68 0 -135.5 -11t-116.5 -30l8 -147q104 45 199 45q68 0 125 -22.5t57 -74.5q0 -55 -66.5 -85.5t-135.5 -30.5h-95v-144zM1354 313h-267l263 408h4v-408zM1354 0h180v170h106v143h-106v551h-238l-376 -569v-125h434v-170z" />
<glyph unicode="&#xbf;" horiz-adv-x="1024" d="M606 643h-192v-37q0 -45 -9.5 -79.5t-33.5 -69.5q-33 -49 -105 -135q-90 -104 -133 -180t-43 -179q0 -88 37 -158.5t99.5 -117.5t141 -72t164.5 -25q184 0 340 68l-14 195q-113 -82 -303 -82q-104 0 -176 52t-72 154q0 80 39 144.5t111 148.5l22 25q74 88 100.5 148.5 t26.5 156.5v43zM625 1044h-230v-229h230v229z" />
<glyph unicode="&#xc0;" horiz-adv-x="1478" d="M692 1829h-223l268 -295h137zM25 0h215l145 360h700l146 -360h223l-604 1430h-215zM1020 528h-569l284 709z" />
<glyph unicode="&#xc1;" horiz-adv-x="1478" d="M604 1534h137l269 295h-224zM25 0h215l145 360h700l146 -360h223l-604 1430h-215zM1020 528h-569l284 709z" />
<glyph unicode="&#xc2;" horiz-adv-x="1478" d="M442 1534h162l133 201l135 -201h164l-205 295h-186zM25 0h215l145 360h700l146 -360h223l-604 1430h-215zM1020 528h-569l284 709z" />
<glyph unicode="&#xc3;" horiz-adv-x="1478" d="M485 1544q6 39 29 66.5t66 27.5t143 -43q57 -25 96 -38t76 -13q49 0 85 21.5t57.5 56.5t32.5 74t17 78h-94q-4 -39 -27.5 -67t-66.5 -28t-143 45q-57 23 -96 36.5t-76 13.5q-49 0 -85 -21.5t-57.5 -56.5t-33 -74t-17.5 -78h94zM25 0h215l145 360h700l146 -360h223 l-604 1430h-215zM1020 528h-569l284 709z" />
<glyph unicode="&#xc4;" horiz-adv-x="1478" d="M475 1548h193v205h-193v-205zM811 1548h193v205h-193v-205zM25 0h215l145 360h700l146 -360h223l-604 1430h-215zM1020 528h-569l284 709z" />
<glyph unicode="&#xc5;" horiz-adv-x="1478" d="M739 1915q-86 0 -147.5 -61.5t-61.5 -147.5t62.5 -147.5t146.5 -61.5t146.5 62.5t62.5 146.5t-62.5 146.5t-146.5 62.5zM739 1833q51 0 89 -38t38 -89q0 -49 -39 -88t-88 -39q-51 0 -89 38t-38 89t38 89t89 38zM25 0h215l145 360h700l146 -360h223l-604 1430h-215z M1020 528h-569l284 709z" />
<glyph unicode="&#xc6;" horiz-adv-x="1933" d="M4 0h227l215 360h609l22 -360h711v180h-522l-29 471h494v180h-504l-27 418h567v181h-899zM1044 528h-499l450 758h4z" />
<glyph unicode="&#xc7;" horiz-adv-x="1251" d="M1186 1393q-139 61 -322 61q-162 0 -301 -52t-241.5 -149.5t-157.5 -233.5t-55 -298q0 -301 165.5 -497.5t448.5 -237.5l-119 -162l35 -39q45 16 84 16t66.5 -21.5t27.5 -58.5q0 -51 -33.5 -72.5t-81.5 -21.5q-37 0 -65.5 7.5t-67.5 23.5l-37 -70q78 -43 173 -43 q104 0 186 47.5t82 141.5q0 68 -49.5 108.5t-120.5 40.5q-35 0 -62 -10l-4 4l78 103q16 -4 47 -5q84 0 169 10.5t157 41.5l-12 198q-51 -31 -141.5 -50t-170.5 -19q-111 0 -209 40t-172.5 114.5t-115.5 178t-41 226.5q0 119 38.5 222t111.5 179t175.5 117t222.5 41 q160 0 295 -80z" />
<glyph unicode="&#xc8;" d="M522 1829h-223l268 -295h138zM193 0h800v180h-596v471h543v180h-543v418h596v181h-800v-1430z" />
<glyph unicode="&#xc9;" d="M434 1534h137l269 295h-224zM193 0h800v180h-596v471h543v180h-543v418h596v181h-800v-1430z" />
<glyph unicode="&#xca;" d="M272 1534h162l133 201l135 -201h164l-204 295h-187zM193 0h800v180h-596v471h543v180h-543v418h596v181h-800v-1430z" />
<glyph unicode="&#xcb;" d="M305 1548h193v205h-193v-205zM641 1548h193v205h-193v-205zM193 0h800v180h-596v471h543v180h-543v418h596v181h-800v-1430z" />
<glyph unicode="&#xcc;" horiz-adv-x="569" d="M238 1829h-224l269 -295h137zM182 0h205v1430h-205v-1430z" />
<glyph unicode="&#xcd;" horiz-adv-x="569" d="M150 1534h137l268 295h-223zM182 0h205v1430h-205v-1430z" />
<glyph unicode="&#xce;" horiz-adv-x="569" d="M-12 1534h162l133 201l135 -201h164l-205 295h-187zM182 0h205v1430h-205v-1430z" />
<glyph unicode="&#xcf;" horiz-adv-x="569" d="M20 1548h193v205h-193v-205zM356 1548h193v205h-193v-205zM182 0h205v1430h-205v-1430z" />
<glyph unicode="&#xd0;" horiz-adv-x="1478" d="M375 1249h235q117 0 214.5 -39t167 -110.5t107.5 -168.5t38 -212q0 -272 -139.5 -405.5t-407.5 -133.5h-215v520h375v131h-375v418zM170 0h422q358 0 560 186.5t202 540.5q0 162 -58.5 293t-162 222t-242.5 139.5t-299 48.5h-422v-599h-139v-131h139v-700z" />
<glyph unicode="&#xd1;" horiz-adv-x="1478" d="M485 1544q6 39 29 66.5t66 27.5t143 -43q57 -25 96 -38t76 -13q49 0 85 21.5t57.5 56.5t32.5 74t17 78h-94q-4 -39 -27.5 -67t-66.5 -28t-143 45q-57 23 -96 36.5t-76 13.5q-49 0 -85 -21.5t-57.5 -56.5t-33 -74t-17.5 -78h94zM180 0h205v1176h4l647 -1176h262v1430h-204 v-1151h-4l-631 1151h-279v-1430z" />
<glyph unicode="&#xd2;" horiz-adv-x="1593" d="M750 1829h-224l269 -295h137zM326 715q0 111 29.5 211t89 179t148.5 124t204 45t204 -45t148 -124t89 -179.5t30 -210.5q0 -111 -28 -210t-86 -179t-148.5 -125t-208.5 -45q-119 0 -209 45t-148.5 123.5t-86 179t-27.5 211.5zM109 715q0 -164 46 -299t135 -234.5 t217 -153t290 -53.5t289.5 53.5t217 153t135.5 234.5t46 299q0 158 -46 294t-135.5 235t-218.5 154.5t-288 55.5q-160 0 -288 -55.5t-218 -154.5t-136 -235t-46 -294z" />
<glyph unicode="&#xd3;" horiz-adv-x="1593" d="M662 1534h137l268 295h-223zM326 715q0 111 29.5 211t89 179t148.5 124t204 45t204 -45t148 -124t89 -179.5t30 -210.5q0 -111 -28 -210t-86 -179t-148.5 -125t-208.5 -45q-119 0 -209 45t-148.5 123.5t-86 179t-27.5 211.5zM109 715q0 -164 46 -299t135 -234.5t217 -153 t290 -53.5t289.5 53.5t217 153t135.5 234.5t46 299q0 158 -46 294t-135.5 235t-218.5 154.5t-288 55.5q-160 0 -288 -55.5t-218 -154.5t-136 -235t-46 -294z" />
<glyph unicode="&#xd4;" horiz-adv-x="1593" d="M500 1534h162l133 201l135 -201h164l-205 295h-187zM326 715q0 111 29.5 211t89 179t148.5 124t204 45t204 -45t148 -124t89 -179.5t30 -210.5q0 -111 -28 -210t-86 -179t-148.5 -125t-208.5 -45q-119 0 -209 45t-148.5 123.5t-86 179t-27.5 211.5zM109 715 q0 -164 46 -299t135 -234.5t217 -153t290 -53.5t289.5 53.5t217 153t135.5 234.5t46 299q0 158 -46 294t-135.5 235t-218.5 154.5t-288 55.5q-160 0 -288 -55.5t-218 -154.5t-136 -235t-46 -294z" />
<glyph unicode="&#xd5;" horiz-adv-x="1593" d="M543 1544q6 39 28.5 66.5t65.5 27.5t143 -43q57 -25 96 -38t76 -13q49 0 85 21.5t57.5 56.5t33 74t17.5 78h-94q-4 -39 -28 -67t-67 -28t-143 45q-57 23 -96 36.5t-76 13.5q-49 0 -85 -21.5t-57.5 -56.5t-32.5 -74t-17 -78h94zM326 715q0 111 29.5 211t89 179t148.5 124 t204 45t204 -45t148 -124t89 -179.5t30 -210.5q0 -111 -28 -210t-86 -179t-148.5 -125t-208.5 -45q-119 0 -209 45t-148.5 123.5t-86 179t-27.5 211.5zM109 715q0 -164 46 -299t135 -234.5t217 -153t290 -53.5t289.5 53.5t217 153t135.5 234.5t46 299q0 158 -46 294 t-135.5 235t-218.5 154.5t-288 55.5q-160 0 -288 -55.5t-218 -154.5t-136 -235t-46 -294z" />
<glyph unicode="&#xd6;" horiz-adv-x="1593" d="M532 1548h193v205h-193v-205zM868 1548h193v205h-193v-205zM326 715q0 111 29.5 211t89 179t148.5 124t204 45t204 -45t148 -124t89 -179.5t30 -210.5q0 -111 -28 -210t-86 -179t-148.5 -125t-208.5 -45q-119 0 -209 45t-148.5 123.5t-86 179t-27.5 211.5zM109 715 q0 -164 46 -299t135 -234.5t217 -153t290 -53.5t289.5 53.5t217 153t135.5 234.5t46 299q0 158 -46 294t-135.5 235t-218.5 154.5t-288 55.5q-160 0 -288 -55.5t-218 -154.5t-136 -235t-46 -294z" />
<glyph unicode="&#xd7;" horiz-adv-x="1228" d="M487 518l-348 -348l127 -127l348 350l349 -350l127 127l-351 348l351 348l-127 127l-349 -350l-348 350l-127 -127z" />
<glyph unicode="&#xd8;" horiz-adv-x="1593" d="M438 328q-57 76 -84.5 176t-27.5 211t29.5 211t89 179t148.5 124t204 45q92 0 163.5 -26.5t129.5 -76.5zM193 10l77 -53l111 143q168 -125 416 -125q162 0 289.5 53.5t217 153t135.5 234.5t46 299q0 168 -51.5 309t-151.5 242l111 145l-74 57l-109 -141 q-176 127 -413 127q-160 0 -288 -55.5t-218 -154.5t-136 -235.5t-46 -293.5q0 -172 51 -313.5t149 -239.5zM1153 1100q55 -76 85 -175.5t30 -209.5q0 -111 -28 -210t-86 -179t-148.5 -125t-208.5 -45q-176 0 -293 102z" />
<glyph unicode="&#xd9;" horiz-adv-x="1478" d="M692 1829h-223l268 -295h137zM1294 1430h-204v-812q0 -221 -81 -341.5t-270 -120.5q-188 0 -269 120.5t-81 341.5v812h-205v-838q0 -299 144.5 -458t410.5 -159t410.5 159t144.5 458v838z" />
<glyph unicode="&#xda;" horiz-adv-x="1478" d="M604 1534h137l269 295h-224zM1294 1430h-204v-812q0 -221 -81 -341.5t-270 -120.5q-188 0 -269 120.5t-81 341.5v812h-205v-838q0 -299 144.5 -458t410.5 -159t410.5 159t144.5 458v838z" />
<glyph unicode="&#xdb;" horiz-adv-x="1478" d="M442 1534h162l133 201l135 -201h164l-205 295h-186zM1294 1430h-204v-812q0 -221 -81 -341.5t-270 -120.5q-188 0 -269 120.5t-81 341.5v812h-205v-838q0 -299 144.5 -458t410.5 -159t410.5 159t144.5 458v838z" />
<glyph unicode="&#xdc;" horiz-adv-x="1478" d="M475 1548h193v205h-193v-205zM811 1548h193v205h-193v-205zM1294 1430h-204v-812q0 -221 -81 -341.5t-270 -120.5q-188 0 -269 120.5t-81 341.5v812h-205v-838q0 -299 144.5 -458t410.5 -159t410.5 159t144.5 458v838z" />
<glyph unicode="&#xdd;" horiz-adv-x="1366" d="M549 1534h137l268 295h-223zM582 0h204v598l557 832h-239l-416 -642l-426 642h-239l559 -832v-598z" />
<glyph unicode="&#xde;" d="M170 0h205v362h200q102 0 192.5 24t161 75t111.5 134t41 198q0 119 -41 201.5t-114.5 132t-168.5 72t-212 22.5h-170v209h-205v-1430zM375 1040h174q51 0 106.5 -14t102.5 -43t76.5 -77t29.5 -111q0 -68 -25.5 -117t-67.5 -79t-92 -43t-101 -13h-203v497z" />
<glyph unicode="&#xdf;" horiz-adv-x="1251" d="M356 0v1001q0 76 14.5 147t47.5 129t90 93t139 35q106 0 168 -74t62 -178q0 -147 -82 -206.5t-238 -59.5v-156q90 0 159.5 -13t120 -46t78 -91.5t27.5 -144.5q0 -137 -81 -215t-204 -78q-82 0 -161 35v-162q98 -29 198 -28q211 0 332 130t121 326q0 141 -83 251t-222 126 v4q240 74 239 334q0 96 -35.5 172t-96 127t-134.5 77t-149 26q-266 0 -384 -149.5t-118 -440.5v-971h192z" />
<glyph unicode="&#xe0;" d="M522 1485h-223l268 -295h138zM223 807q57 49 139 77.5t164 28.5q141 0 199.5 -66.5t58.5 -205.5q-57 4 -96 4h-108q-82 0 -165 -18.5t-157 -58.5t-119 -107.5t-45 -159.5q0 -164 103.5 -245t279.5 -81q117 0 198 48.5t126 111.5h4v-135h180q-4 27 -6 73t-2 132v432 q0 217 -100.5 324.5t-319.5 107.5q-178 0 -344 -98zM784 406q0 -121 -75.5 -198t-214.5 -77q-74 0 -134.5 46t-60.5 124q0 66 39 107t96.5 61t114.5 26.5t113 6.5q20 0 61 -2t61 -2v-92z" />
<glyph unicode="&#xe1;" d="M434 1190h137l269 295h-224zM223 807q57 49 139 77.5t164 28.5q141 0 199.5 -66.5t58.5 -205.5q-57 4 -96 4h-108q-82 0 -165 -18.5t-157 -58.5t-119 -107.5t-45 -159.5q0 -164 103.5 -245t279.5 -81q117 0 198 48.5t126 111.5h4v-135h180q-4 27 -6 73t-2 132v432 q0 217 -100.5 324.5t-319.5 107.5q-178 0 -344 -98zM784 406q0 -121 -75.5 -198t-214.5 -77q-74 0 -134.5 46t-60.5 124q0 66 39 107t96.5 61t114.5 26.5t113 6.5q20 0 61 -2t61 -2v-92z" />
<glyph unicode="&#xe2;" d="M272 1190h162l133 201l135 -201h164l-204 295h-187zM223 807q57 49 139 77.5t164 28.5q141 0 199.5 -66.5t58.5 -205.5q-57 4 -96 4h-108q-82 0 -165 -18.5t-157 -58.5t-119 -107.5t-45 -159.5q0 -164 103.5 -245t279.5 -81q117 0 198 48.5t126 111.5h4v-135h180 q-4 27 -6 73t-2 132v432q0 217 -100.5 324.5t-319.5 107.5q-178 0 -344 -98zM784 406q0 -121 -75.5 -198t-214.5 -77q-74 0 -134.5 46t-60.5 124q0 66 39 107t96.5 61t114.5 26.5t113 6.5q20 0 61 -2t61 -2v-92z" />
<glyph unicode="&#xe3;" d="M315 1200q6 39 29 66.5t66 27.5t143 -43q57 -25 96 -38t76 -13q49 0 85 21.5t57.5 56.5t32.5 74t18 78h-95q-4 -39 -27.5 -67t-66.5 -28t-143 45q-57 23 -96 36.5t-76 13.5q-49 0 -85 -22t-57.5 -56.5t-33 -73.5t-17.5 -78h94zM223 807q57 49 139 77.5t164 28.5 q141 0 199.5 -66.5t58.5 -205.5q-57 4 -96 4h-108q-82 0 -165 -18.5t-157 -58.5t-119 -107.5t-45 -159.5q0 -164 103.5 -245t279.5 -81q117 0 198 48.5t126 111.5h4v-135h180q-4 27 -6 73t-2 132v432q0 217 -100.5 324.5t-319.5 107.5q-178 0 -344 -98zM784 406 q0 -121 -75.5 -198t-214.5 -77q-74 0 -134.5 46t-60.5 124q0 66 39 107t96.5 61t114.5 26.5t113 6.5q20 0 61 -2t61 -2v-92z" />
<glyph unicode="&#xe4;" d="M305 1204h193v205h-193v-205zM641 1204h193v205h-193v-205zM223 807q57 49 139 77.5t164 28.5q141 0 199.5 -66.5t58.5 -205.5q-57 4 -96 4h-108q-82 0 -165 -18.5t-157 -58.5t-119 -107.5t-45 -159.5q0 -164 103.5 -245t279.5 -81q117 0 198 48.5t126 111.5h4v-135h180 q-4 27 -6 73t-2 132v432q0 217 -100.5 324.5t-319.5 107.5q-178 0 -344 -98zM784 406q0 -121 -75.5 -198t-214.5 -77q-74 0 -134.5 46t-60.5 124q0 66 39 107t96.5 61t114.5 26.5t113 6.5q20 0 61 -2t61 -2v-92z" />
<glyph unicode="&#xe5;" d="M569 1571q-86 0 -147.5 -61.5t-61.5 -147.5t62.5 -147.5t146.5 -61.5t146.5 62.5t62.5 146.5t-62.5 146.5t-146.5 62.5zM569 1489q51 0 89 -38t38 -89q0 -49 -39 -88t-88 -39q-51 0 -89 38t-38 89t38 89t89 38zM223 807q57 49 139 77.5t164 28.5q141 0 199.5 -66.5 t58.5 -205.5q-57 4 -96 4h-108q-82 0 -165 -18.5t-157 -58.5t-119 -107.5t-45 -159.5q0 -164 103.5 -245t279.5 -81q117 0 198 48.5t126 111.5h4v-135h180q-4 27 -6 73t-2 132v432q0 217 -100.5 324.5t-319.5 107.5q-178 0 -344 -98zM784 406q0 -121 -75.5 -198t-214.5 -77 q-74 0 -134.5 46t-60.5 124q0 66 39 107t96.5 61t114.5 26.5t113 6.5q20 0 61 -2t61 -2v-92z" />
<glyph unicode="&#xe6;" horiz-adv-x="1820" d="M219 807q66 47 142.5 76.5t148.5 29.5q133 0 214 -67.5t81 -210.5q-23 0 -70 4q-90 6 -147 6q-82 0 -166 -13.5t-161 -49t-127 -103t-50 -170.5q0 -76 34 -138t93 -106.5t131 -67t145 -22.5q135 0 246 62.5t141 181.5h5q25 -68 71.5 -115t109 -75.5t131.5 -41t138 -12.5 q74 0 150.5 18.5t148.5 51.5v195q-59 -47 -137 -78t-152 -31q-72 0 -135 26.5t-110 75.5q-96 100 -97 246h740q0 123 -22.5 227.5t-76 186.5t-142.5 129t-218 47q-119 0 -214 -44t-149 -138q-51 92 -148 137t-212 45q-96 0 -185 -27.5t-161 -72.5zM289 303q0 61 33.5 102 t86 61.5t105.5 28t107 7.5q59 0 139 -4q35 -2 45 -2q0 -74 -22.5 -139.5t-64.5 -117t-99.5 -80t-124.5 -28.5q-84 0 -144.5 45t-60.5 127zM997 623q0 125 78 207.5t201 82.5q57 0 105.5 -25.5t81 -67.5t51 -94t18.5 -103h-535z" />
<glyph unicode="&#xe7;" horiz-adv-x="909" d="M844 1028q-43 16 -109.5 28.5t-124.5 12.5q-117 0 -216 -40t-169.5 -113.5t-108.5 -174t-38 -219.5q0 -98 31.5 -189t89 -164t138.5 -120t177 -63l-121 -162l35 -39q45 16 84 16t66.5 -21.5t27.5 -58.5q0 -51 -33.5 -72.5t-80.5 -21.5q-37 0 -66 7.5t-68 23.5l-36 -70 q78 -43 172 -43q104 0 186 47.5t82 141.5q0 68 -49 108.5t-121 40.5q-35 0 -62 -10l-4 4l76 98h8q63 0 126 9.5t116 33.5l-14 172q-43 -29 -99.5 -44t-107.5 -15q-90 0 -156.5 34t-108.5 90t-62.5 125t-20.5 142q0 76 22.5 146.5t65.5 126t106.5 87t140.5 31.5 q100 0 209 -45z" />
<glyph unicode="&#xe8;" d="M522 1485h-223l268 -295h138zM965 236q-18 -14 -53 -33t-80.5 -35t-94.5 -26.5t-94 -10.5q-68 0 -130 24.5t-110.5 71.5t-76 111.5t-27.5 140.5h745q0 131 -23.5 237.5t-77.5 185.5t-143 123t-216 44q-109 0 -200 -39t-155.5 -109.5t-99.5 -168t-35 -211.5 q0 -264 135.5 -415t405.5 -151q98 0 164.5 15.5t136.5 42.5q16 6 29 10v193zM299 623q6 53 24.5 105t52.5 94t85 66.5t119 24.5q121 0 190.5 -82.5t69.5 -207.5h-541z" />
<glyph unicode="&#xe9;" d="M434 1190h137l269 295h-224zM965 236q-18 -14 -53 -33t-80.5 -35t-94.5 -26.5t-94 -10.5q-68 0 -130 24.5t-110.5 71.5t-76 111.5t-27.5 140.5h745q0 131 -23.5 237.5t-77.5 185.5t-143 123t-216 44q-109 0 -200 -39t-155.5 -109.5t-99.5 -168t-35 -211.5 q0 -264 135.5 -415t405.5 -151q98 0 164.5 15.5t136.5 42.5q16 6 29 10v193zM299 623q6 53 24.5 105t52.5 94t85 66.5t119 24.5q121 0 190.5 -82.5t69.5 -207.5h-541z" />
<glyph unicode="&#xea;" d="M272 1190h162l133 201l135 -201h164l-204 295h-187zM965 236q-18 -14 -53 -33t-80.5 -35t-94.5 -26.5t-94 -10.5q-68 0 -130 24.5t-110.5 71.5t-76 111.5t-27.5 140.5h745q0 131 -23.5 237.5t-77.5 185.5t-143 123t-216 44q-109 0 -200 -39t-155.5 -109.5t-99.5 -168 t-35 -211.5q0 -264 135.5 -415t405.5 -151q98 0 164.5 15.5t136.5 42.5q16 6 29 10v193zM299 623q6 53 24.5 105t52.5 94t85 66.5t119 24.5q121 0 190.5 -82.5t69.5 -207.5h-541z" />
<glyph unicode="&#xeb;" d="M305 1204h193v205h-193v-205zM641 1204h193v205h-193v-205zM965 236q-18 -14 -53 -33t-80.5 -35t-94.5 -26.5t-94 -10.5q-68 0 -130 24.5t-110.5 71.5t-76 111.5t-27.5 140.5h745q0 131 -23.5 237.5t-77.5 185.5t-143 123t-216 44q-109 0 -200 -39t-155.5 -109.5 t-99.5 -168t-35 -211.5q0 -264 135.5 -415t405.5 -151q98 0 164.5 15.5t136.5 42.5q16 6 29 10v193zM299 623q6 53 24.5 105t52.5 94t85 66.5t119 24.5q121 0 190.5 -82.5t69.5 -207.5h-541z" />
<glyph unicode="&#xec;" horiz-adv-x="569" d="M238 1485h-224l269 -295h137zM188 0h193v1044h-193v-1044z" />
<glyph unicode="&#xed;" horiz-adv-x="569" d="M150 1190h137l268 295h-223zM188 0h193v1044h-193v-1044z" />
<glyph unicode="&#xee;" horiz-adv-x="569" d="M-12 1190h162l133 201l135 -201h164l-205 295h-187zM188 0h193v1044h-193v-1044z" />
<glyph unicode="&#xef;" horiz-adv-x="569" d="M20 1204h193v205h-193v-205zM356 1204h193v205h-193v-205zM188 0h193v1044h-193v-1044z" />
<glyph unicode="&#xf0;" horiz-adv-x="1251" d="M299 522q0 76 22.5 145.5t65.5 126t103.5 88t136.5 31.5q74 0 135 -31.5t103 -88t64.5 -126t22.5 -145.5q0 -72 -19.5 -141.5t-60.5 -125.5t-102 -90t-143 -34t-144.5 34t-103.5 90t-60.5 125.5t-19.5 141.5zM221 1212l94 -108l265 141q127 -92 223 -221h-4 q-76 45 -172 45q-117 0 -216.5 -40t-170 -113.5t-108.5 -174t-38 -219.5q0 -111 38 -210t110.5 -176t171 -119t213.5 -42t213 42t168.5 118t109.5 176.5t39 210.5q0 258 -112.5 467t-294.5 348l213 115l-95 109l-250 -136q-127 80 -280 136l-148 -109q143 -49 256 -119z" />
<glyph unicode="&#xf1;" horiz-adv-x="1251" d="M373 1200q6 39 28.5 66.5t65.5 27.5t143 -43q57 -25 96 -38t76 -13q49 0 85 21.5t57.5 56.5t33 74t17.5 78h-94q-4 -39 -28 -67t-67 -28t-143 45q-57 23 -96 36.5t-76 13.5q-49 0 -85 -22t-57.5 -56.5t-32.5 -73.5t-17 -78h94zM164 0h192v483q0 199 80 314.5t238 115.5 q123 -8 172 -96t49 -276v-541h192v621q0 217 -96 332.5t-295 115.5q-111 0 -205 -51t-137 -139h-4v165h-186v-1044z" />
<glyph unicode="&#xf2;" horiz-adv-x="1251" d="M580 1485h-224l269 -295h137zM94 522q0 -111 38 -210t110.5 -176t171 -119t213.5 -42t213 42t168.5 118t109.5 176.5t39 210.5q0 119 -38 219.5t-108.5 174t-169 113.5t-214.5 40q-117 0 -216.5 -40t-170 -113.5t-108.5 -174t-38 -219.5zM299 522q0 76 22.5 145.5 t65.5 126t103.5 88t136.5 31.5q74 0 135 -31.5t103 -88t64.5 -126t22.5 -145.5q0 -72 -19.5 -141.5t-60.5 -125.5t-102 -90t-143 -34t-144.5 34t-103.5 90t-60.5 125.5t-19.5 141.5z" />
<glyph unicode="&#xf3;" horiz-adv-x="1251" d="M492 1190h137l268 295h-223zM94 522q0 -111 38 -210t110.5 -176t171 -119t213.5 -42t213 42t168.5 118t109.5 176.5t39 210.5q0 119 -38 219.5t-108.5 174t-169 113.5t-214.5 40q-117 0 -216.5 -40t-170 -113.5t-108.5 -174t-38 -219.5zM299 522q0 76 22.5 145.5 t65.5 126t103.5 88t136.5 31.5q74 0 135 -31.5t103 -88t64.5 -126t22.5 -145.5q0 -72 -19.5 -141.5t-60.5 -125.5t-102 -90t-143 -34t-144.5 34t-103.5 90t-60.5 125.5t-19.5 141.5z" />
<glyph unicode="&#xf4;" horiz-adv-x="1251" d="M330 1190h162l133 201l135 -201h164l-205 295h-187zM94 522q0 -111 38 -210t110.5 -176t171 -119t213.5 -42t213 42t168.5 118t109.5 176.5t39 210.5q0 119 -38 219.5t-108.5 174t-169 113.5t-214.5 40q-117 0 -216.5 -40t-170 -113.5t-108.5 -174t-38 -219.5zM299 522 q0 76 22.5 145.5t65.5 126t103.5 88t136.5 31.5q74 0 135 -31.5t103 -88t64.5 -126t22.5 -145.5q0 -72 -19.5 -141.5t-60.5 -125.5t-102 -90t-143 -34t-144.5 34t-103.5 90t-60.5 125.5t-19.5 141.5z" />
<glyph unicode="&#xf5;" horiz-adv-x="1251" d="M373 1200q6 39 28.5 66.5t65.5 27.5t143 -43q57 -25 96 -38t76 -13q49 0 85 21.5t57.5 56.5t33 74t17.5 78h-94q-4 -39 -28 -67t-67 -28t-143 45q-57 23 -96 36.5t-76 13.5q-49 0 -85 -22t-57.5 -56.5t-32.5 -73.5t-17 -78h94zM94 522q0 -111 38 -210t110.5 -176 t171 -119t213.5 -42t213 42t168.5 118t109.5 176.5t39 210.5q0 119 -38 219.5t-108.5 174t-169 113.5t-214.5 40q-117 0 -216.5 -40t-170 -113.5t-108.5 -174t-38 -219.5zM299 522q0 76 22.5 145.5t65.5 126t103.5 88t136.5 31.5q74 0 135 -31.5t103 -88t64.5 -126 t22.5 -145.5q0 -72 -19.5 -141.5t-60.5 -125.5t-102 -90t-143 -34t-144.5 34t-103.5 90t-60.5 125.5t-19.5 141.5z" />
<glyph unicode="&#xf6;" horiz-adv-x="1251" d="M362 1204h193v205h-193v-205zM698 1204h193v205h-193v-205zM94 522q0 -111 38 -210t110.5 -176t171 -119t213.5 -42t213 42t168.5 118t109.5 176.5t39 210.5q0 119 -38 219.5t-108.5 174t-169 113.5t-214.5 40q-117 0 -216.5 -40t-170 -113.5t-108.5 -174t-38 -219.5z M299 522q0 76 22.5 145.5t65.5 126t103.5 88t136.5 31.5q74 0 135 -31.5t103 -88t64.5 -126t22.5 -145.5q0 -72 -19.5 -141.5t-60.5 -125.5t-102 -90t-143 -34t-144.5 34t-103.5 90t-60.5 125.5t-19.5 141.5z" />
<glyph unicode="&#xf7;" horiz-adv-x="1228" d="M96 428h1037v180h-1037v-180zM459 942q0 -63 47 -109.5t112 -46.5q59 0 106.5 48.5t47.5 107.5q0 63 -47 110.5t-109 47.5q-63 0 -110 -47.5t-47 -110.5zM459 94q0 -63 47 -110t112 -47q59 0 106.5 49t47.5 108q0 63 -47 109.5t-109 46.5q-66 0 -111.5 -46.5 t-45.5 -109.5z" />
<glyph unicode="&#xf8;" horiz-adv-x="1251" d="M367 276q-33 51 -50.5 116t-17.5 130q0 76 22.5 145.5t65.5 126t103.5 88t136.5 31.5q117 0 198 -77zM879 774q74 -109 73 -252q0 -72 -19.5 -141.5t-60.5 -125.5t-102 -90t-143 -34q-125 0 -209 80zM131 -12l62 -51l116 141q135 -102 318 -103q115 0 213 42t168.5 118 t109.5 176.5t39 210.5q0 123 -40 225.5t-116 176.5l109 133l-61 51l-109 -133q-129 94 -313 94q-117 0 -216.5 -40t-170 -113.5t-108.5 -174t-38 -219.5q0 -113 40 -213t114 -176z" />
<glyph unicode="&#xf9;" horiz-adv-x="1251" d="M580 1485h-224l269 -295h137zM1087 1044h-192v-483q0 -199 -80 -314.5t-237 -115.5q-123 8 -172.5 96t-49.5 277v540h-192v-620q0 -215 96 -332t295 -117q111 0 205 51.5t137 139.5h4v-166h186v1044z" />
<glyph unicode="&#xfa;" horiz-adv-x="1251" d="M492 1190h137l268 295h-223zM1087 1044h-192v-483q0 -199 -80 -314.5t-237 -115.5q-123 8 -172.5 96t-49.5 277v540h-192v-620q0 -215 96 -332t295 -117q111 0 205 51.5t137 139.5h4v-166h186v1044z" />
<glyph unicode="&#xfb;" horiz-adv-x="1251" d="M330 1190h162l133 201l135 -201h164l-205 295h-187zM1087 1044h-192v-483q0 -199 -80 -314.5t-237 -115.5q-123 8 -172.5 96t-49.5 277v540h-192v-620q0 -215 96 -332t295 -117q111 0 205 51.5t137 139.5h4v-166h186v1044z" />
<glyph unicode="&#xfc;" horiz-adv-x="1251" d="M362 1204h193v205h-193v-205zM698 1204h193v205h-193v-205zM1087 1044h-192v-483q0 -199 -80 -314.5t-237 -115.5q-123 8 -172.5 96t-49.5 277v540h-192v-620q0 -215 96 -332t295 -117q111 0 205 51.5t137 139.5h4v-166h186v1044z" />
<glyph unicode="&#xfd;" horiz-adv-x="1024" d="M377 1190h137l268 295h-223zM74 -440l14 -2q63 -12 117 -13q88 0 152.5 35t107.5 94.5t71.5 123t63.5 163.5l6 16l385 1067h-194l-287 -864h-4l-281 864h-211l355 -974q4 -10 12 -33q14 -33 19.5 -50.5t5.5 -27.5q0 -12 -13.5 -54t-40 -89t-71.5 -81t-105 -34 q-41 0 -90 16z" />
<glyph unicode="&#xfe;" horiz-adv-x="1251" d="M164 -430h192v573h4q49 -78 133.5 -123t215.5 -45q115 0 199.5 46.5t140 126t82 181t26.5 212.5q0 106 -28.5 202.5t-85 169t-141.5 114.5t-195 42q-129 0 -213 -45t-134 -123h-4v635h-192v-1966zM952 526q0 -68 -17 -137.5t-53 -127.5t-91.5 -94t-126.5 -36 q-78 0 -137.5 35t-96.5 92t-55.5 125t-18.5 137q0 76 19.5 145.5t58.5 126t97.5 89t134.5 32.5q74 0 129 -31.5t90 -86t51 -123t16 -146.5z" />
<glyph unicode="&#xff;" horiz-adv-x="1024" d="M248 1204h192v205h-192v-205zM584 1204h192v205h-192v-205zM74 -440l14 -2q63 -12 117 -13q88 0 152.5 35t107.5 94.5t71.5 123t63.5 163.5l6 16l385 1067h-194l-287 -864h-4l-281 864h-211l355 -974q4 -10 12 -33q14 -33 19.5 -50.5t5.5 -27.5q0 -12 -13.5 -54t-40 -89 t-71.5 -81t-105 -34q-41 0 -90 16z" />
<glyph unicode="&#x152;" horiz-adv-x="1933" d="M1010 180q-49 -12 -123 -12q-252 0 -406.5 149.5t-154.5 415.5q0 254 149.5 391.5t409.5 137.5q43 0 125 -13v-1069zM1792 1430h-596q-49 0 -147 6q-100 6 -152 6q-174 0 -319.5 -49.5t-250 -142.5t-161.5 -225t-57 -292q0 -174 57 -313t162.5 -235.5t250 -146.5 t314.5 -50q53 0 160 6q106 6 159 6h594v180h-592v471h537v180h-537v418h578v181z" />
<glyph unicode="&#x153;" horiz-adv-x="1933" d="M1741 240q-59 -47 -137 -78t-152 -31q-72 0 -135.5 26.5t-110.5 75.5q-96 100 -96 246h739q0 123 -22.5 227.5t-75.5 186.5t-142 129t-218 47t-226.5 -52t-146.5 -153q-55 100 -162.5 152.5t-253.5 52.5q-117 0 -213 -44t-164.5 -122t-104.5 -177t-36 -204 q0 -117 36 -217t103.5 -174t163.5 -115t215 -41q127 0 241.5 55.5t168.5 170.5q53 -113 164.5 -169.5t265.5 -56.5q74 0 150.5 18.5t148.5 51.5v195zM289 522q0 70 19.5 138.5t58.5 126t99 92t138 34.5t137.5 -34.5t98.5 -93t58.5 -127t19.5 -136.5q0 -72 -20.5 -141.5 t-61.5 -125.5t-99.5 -90t-132.5 -34q-82 0 -142.5 31t-98 85t-56 124.5t-18.5 150.5zM1110 623q0 125 78 207.5t201 82.5q57 0 105 -25.5t81 -67.5t51.5 -94t18.5 -103h-535z" />
<glyph unicode="&#x178;" horiz-adv-x="1366" d="M420 1548h192v205h-192v-205zM756 1548h192v205h-192v-205zM582 0h204v598l557 832h-239l-416 -642l-426 642h-239l559 -832v-598z" />
<glyph unicode="&#x2c6;" horiz-adv-x="569" d="M-12 1190h162l133 201l135 -201h164l-205 295h-187z" />
<glyph unicode="&#x2dc;" horiz-adv-x="569" d="M31 1200q6 39 28.5 66.5t65.5 27.5t143 -43q57 -25 96 -38t76 -13q49 0 85 21.5t57.5 56.5t33 74t17.5 78h-94q-4 -39 -28 -67t-67 -28t-143 45q-57 23 -96 36.5t-76 13.5q-49 0 -85 -22t-57.5 -56.5t-32.5 -73.5t-17 -78h94z" />
<glyph unicode="&#x2000;" horiz-adv-x="956" />
<glyph unicode="&#x2001;" horiz-adv-x="1914" />
<glyph unicode="&#x2002;" horiz-adv-x="956" />
<glyph unicode="&#x2003;" horiz-adv-x="1914" />
<glyph unicode="&#x2004;" horiz-adv-x="636" />
<glyph unicode="&#x2005;" horiz-adv-x="477" />
<glyph unicode="&#x2006;" horiz-adv-x="317" />
<glyph unicode="&#x2007;" horiz-adv-x="317" />
<glyph unicode="&#x2008;" horiz-adv-x="237" />
<glyph unicode="&#x2009;" horiz-adv-x="382" />
<glyph unicode="&#x200a;" horiz-adv-x="104" />
<glyph unicode="&#x2010;" horiz-adv-x="681" d="M78 473h526v156h-526v-156z" />
<glyph unicode="&#x2011;" horiz-adv-x="681" d="M78 473h526v156h-526v-156z" />
<glyph unicode="&#x2012;" horiz-adv-x="681" d="M78 473h526v156h-526v-156z" />
<glyph unicode="&#x2013;" horiz-adv-x="1024" d="M0 479h1024v144h-1024v-144z" />
<glyph unicode="&#x2014;" horiz-adv-x="2048" d="M0 479h2048v144h-2048v-144z" />
<glyph unicode="&#x2018;" horiz-adv-x="569" d="M463 1430h-182l-175 -502h228z" />
<glyph unicode="&#x2019;" horiz-adv-x="569" d="M106 928h177l180 502h-230z" />
<glyph unicode="&#x201a;" horiz-adv-x="569" d="M106 -272h183l174 501h-227z" />
<glyph unicode="&#x201c;" d="M553 1430h-180l-176 -502h229zM942 1430h-184l-172 -502h225z" />
<glyph unicode="&#x201d;" d="M197 928h182l174 502h-227zM586 928h182l174 502h-227z" />
<glyph unicode="&#x201e;" d="M197 -272h182l174 501h-227zM586 -272h182l174 501h-227z" />
<glyph unicode="&#x2022;" horiz-adv-x="1024" d="M156 715q0 -74 26.5 -139.5t76.5 -114.5t114.5 -77t138.5 -28t139.5 28t114.5 77t76.5 114.5t27.5 139.5t-27.5 138.5t-76.5 114.5t-114.5 76.5t-139.5 26.5t-138.5 -26.5t-113.5 -76.5t-76.5 -114.5t-27.5 -138.5z" />
<glyph unicode="&#x2026;" horiz-adv-x="2048" d="M227 0h230v229h-230v-229zM909 0h230v229h-230v-229zM1591 0h230v229h-230v-229z" />
<glyph unicode="&#x202f;" horiz-adv-x="382" />
<glyph unicode="&#x2039;" horiz-adv-x="569" d="M334 137h180l-266 414l266 414h-180l-293 -414z" />
<glyph unicode="&#x203a;" horiz-adv-x="569" d="M236 965h-181l267 -414l-267 -414h181l292 414z" />
<glyph unicode="&#x205f;" horiz-adv-x="477" />
<glyph unicode="&#x2122;" horiz-adv-x="2027" d="M373 578h155v708h263v144h-680v-144h262v-708zM991 578h156v651h4l240 -651h127l239 651h4v-651h156v852h-242l-219 -576l-223 576h-242v-852z" />
<glyph unicode="&#xe000;" horiz-adv-x="1045" d="M0 1045h1045v-1045h-1045v1045z" />
<glyph unicode="&#xfb01;" horiz-adv-x="1366" d="M985 0h193v1044h-193v-1044zM1190 1495h-217v-217h217v217zM289 0h192v889h277v155h-277v113q0 125 36 186.5t151 61.5q59 0 92 -12l8 155q-78 12 -129 13q-104 0 -173 -29t-108 -83t-54 -130t-15 -178v-97h-246v-155h246v-889z" />
<glyph unicode="&#xfb02;" horiz-adv-x="1366" d="M985 0h193v1536h-193v-1536zM289 0h192v889h277v155h-277v113q0 125 36 186.5t151 61.5q59 0 92 -12l8 155q-78 12 -129 13q-104 0 -173 -29t-108 -83t-54 -130t-15 -178v-97h-246v-155h246v-889z" />
<glyph unicode="&#xfb03;" horiz-adv-x="2162" d="M1781 0h193v1044h-193v-1044zM1986 1495h-217v-217h217v217zM1086 0h192v889h277v155h-277v113q0 125 36 186.5t151 61.5q59 0 92 -12l8 155q-78 12 -129 13q-104 0 -173 -29t-108 -83t-54 -130t-15 -178v-97h-246v-155h246v-889zM289 0h192v889h277v155h-277v113 q0 125 36 186.5t151 61.5q59 0 92 -12l8 155q-78 12 -129 13q-104 0 -173 -29t-108 -83t-54 -130t-15 -178v-97h-246v-155h246v-889z" />
<glyph unicode="&#xfb04;" horiz-adv-x="2162" d="M1781 0h193v1536h-193v-1536zM1086 0h192v889h277v155h-277v113q0 125 36 186.5t151 61.5q59 0 92 -12l8 155q-78 12 -129 13q-104 0 -173 -29t-108 -83t-54 -130t-15 -178v-97h-246v-155h246v-889zM289 0h192v889h277v155h-277v113q0 125 36 186.5t151 61.5q59 0 92 -12 l8 155q-78 12 -129 13q-104 0 -173 -29t-108 -83t-54 -130t-15 -178v-97h-246v-155h246v-889z" />
</font>
</defs>
</svg>
